<svg id="Layer_1" data-name="Layer 1" xmlns="http://www.w3.org/2000/svg" viewBox="0 0 488 145"><defs><style>.cls-1{font-size:65.57px;}.cls-1,.cls-2{font-family:LucidaBright, Lucida Bright;}.cls-2{font-size:42px;}</style></defs><title>Artboard 1</title><text class="cls-1" transform="translate(35.29 117.49)">DATABASE</text><text class="cls-2" transform="translate(35.53 55.14)">WATER QUALITY</text><path d="M435.16,22S400,62.57,400,90.89a35.18,35.18,0,0,0,34.26,35.16h2l.61,0,.23,0,.68,0,.14,0a35.15,35.15,0,0,0,32.42-35C470.33,62.57,435.16,22,435.16,22Zm2.3,100.94h-.14l-.62,0-.23,0h-2.4a32.56,32.56,0,0,1-31.71-32.54c0-26.23,32.55-63.78,32.55-63.78s32.55,37.55,32.55,63.78A32.55,32.55,0,0,1,437.46,122.94Z"/><path d="M470.33,90.89a35.15,35.15,0,0,1-32.42,35.05l-.14,0-.68,0-.23,0-.61,0h-2A35.18,35.18,0,0,1,400,90.89a48,48,0,0,1,2.09-13.21c6.48-5.08,16.3-8.06,29.24,1.24,14.08,10.12,27.9,6,37.34.32A46,46,0,0,1,470.33,90.89Z"/><path d="M422.1,55.65s-2.16,2.49-2.16,4.23A2.16,2.16,0,0,0,422.05,62h.22a2.16,2.16,0,0,0,2-2.16C424.26,58.14,422.1,55.65,422.1,55.65Z"/><path d="M439.75,43.15s-2.16,2.49-2.16,4.23a2.16,2.16,0,0,0,2.1,2.16h.23a2.17,2.17,0,0,0,2-2.16C441.91,45.64,439.75,43.15,439.75,43.15Z"/><path d="M446.64,59.32s-1.91,2.21-1.91,3.75A1.91,1.91,0,0,0,446.59,65h.2a1.92,1.92,0,0,0,1.77-1.91C448.56,61.53,446.64,59.32,446.64,59.32Z"/><path d="M434.92,65.49s-2.56,3-2.56,5a2.56,2.56,0,0,0,2.5,2.56h.26a2.57,2.57,0,0,0,2.37-2.56C437.49,68.44,434.92,65.49,434.92,65.49Z"/></svg>