<svg id="Layer_1" data-name="Layer 1" xmlns="http://www.w3.org/2000/svg" viewBox="0 0 573 179"><defs><style>.cls-1{font-size:65.57px;}.cls-1,.cls-2{font-family:LucidaBright, Lucida Bright;}.cls-2{font-size:78.77px;}</style></defs><title>Artboard 1</title><text class="cls-1" transform="translate(25.29 81.49)">YOUR</text><text class="cls-1" transform="translate(213.29 81.49)">WATER</text><text class="cls-2" transform="translate(78.53 147.39)">QUALITY</text><path d="M507.82,15.54S460,70.71,460,109.23A47.83,47.83,0,0,0,506.59,157h2.7l.84,0,.32,0,.92,0,.19,0a47.82,47.82,0,0,0,44.09-47.67C555.65,70.71,507.82,15.54,507.82,15.54Zm3.12,137.28h-.18c-.28,0-.57,0-.85.06l-.31,0-.77,0h-2.5a44.27,44.27,0,0,1-43.12-44.25C463.21,73,507.48,22,507.48,22S551.75,73,551.75,108.69A44.27,44.27,0,0,1,510.94,152.82Z"/><path d="M555.65,109.23a47.82,47.82,0,0,1-44.09,47.67l-.19,0-.92,0-.32,0-.84,0h-2.7A47.83,47.83,0,0,1,460,109.23a65.41,65.41,0,0,1,2.84-18c8.82-6.92,22.17-11,39.77,1.68,19.14,13.76,37.94,8.09,50.79.44A63,63,0,0,1,555.65,109.23Z"/><path d="M490.06,61.3s-2.94,3.39-2.94,5.76A2.94,2.94,0,0,0,490,70h.3A2.94,2.94,0,0,0,493,67.06C493,64.69,490.06,61.3,490.06,61.3Z"/><path d="M514.06,44.3s-2.94,3.39-2.94,5.76A2.94,2.94,0,0,0,514,53h.3A2.94,2.94,0,0,0,517,50.06C517,47.69,514.06,44.3,514.06,44.3Z"/><path d="M523.44,66.29s-2.61,3-2.61,5.1A2.61,2.61,0,0,0,523.37,74h.27a2.61,2.61,0,0,0,2.4-2.6C526,69.3,523.44,66.29,523.44,66.29Z"/><path d="M507.5,74.68s-3.49,4-3.49,6.83a3.49,3.49,0,0,0,3.4,3.49h.36A3.48,3.48,0,0,0,511,81.51C511,78.71,507.5,74.68,507.5,74.68Z"/></svg>